<svg id="Filled" height="512" viewBox="0 0 512 512" width="512" xmlns="http://www.w3.org/2000/svg"><path d="m56 295.935h240a32 32 0 0 1 32 32v160.065a0 0 0 0 1 0 0h-304a0 0 0 0 1 0 0v-160.065a32 32 0 0 1 32-32z" fill="#eb423f"/><path d="m72 296h216v192h-216z" fill="#3397e8"/><path d="m120 424h112v64h-112z" fill="#1261a0"/><path d="m104 296h144v80h-144z" fill="#e9eef2"/><path d="m152 288h48v40h-48z" fill="#f7cca9"/><circle cx="72" cy="200" fill="#f0c6a4" r="32"/><circle cx="280" cy="200" fill="#f0c6a4" r="32"/><circle cx="176" cy="72" fill="#75452e" r="48"/><rect fill="#f7cca9" height="232" rx="104" width="208" x="72" y="64"/><path d="m249.54 86.46a104 104 0 0 0 -177.54 73.54v8h120a32 32 0 0 0 32-32 32 32 0 0 0 32 32h24v-8a103.674 103.674 0 0 0 -30.46-73.54z" fill="#95573a"/><path d="m455.439 488h1.122a16 16 0 0 0 15.99-15.429l7.449-208.571h-48l7.449 208.571a16 16 0 0 0 15.99 15.429z" fill="#95573a"/><path d="m456 152a32 32 0 0 1 32 32v48a32 32 0 0 1 -32 32 32 32 0 0 1 -32-32v-56s0-24-24-24z" fill="#f7b030"/><path d="m488 184v48a32 32 0 1 1 -64 0v-9.24s32 7.75 40-15.5 24-23.26 24-23.26z" fill="#bd620e"/><path d="m424 264h64v48h-64z" fill="#5e3725" transform="matrix(-1 0 0 -1 912 576)"/><path d="m328.019 264c-25.064 0-48.2 8.887-66.864 22.373-24.988 18.06-11.974 57.627 18.858 57.627h8.006a32 32 0 0 1 32 32 32 32 0 0 1 -32 32h-7.219c-31.889 0-44.766 40.992-18.677 59.332a114.262 114.262 0 0 0 65.896 20.668c61.856 0 112-48.353 112-108s-50.144-116-112-116z" fill="#e9eef2"/><circle cx="328.019" cy="312" fill="#1261a0" r="16"/><circle cx="384.019" cy="344" fill="#eb423f" r="16"/><circle cx="384.019" cy="408" fill="#f7b030" r="16"/><circle cx="328.019" cy="440" fill="#35a872" r="16"/><circle cx="216" cy="200" r="8"/><circle cx="136" cy="200" r="8"/><path d="m168 224h16a8 8 0 0 0 0-16h-8v-8a8 8 0 0 0 -16 0v16a8 8 0 0 0 8 8z"/><path d="m456 144h-56a8 8 0 0 0 0 16c6.7 0 11.04 2.29 13.653 7.206a22.084 22.084 0 0 1 2.347 8.794v56a39.788 39.788 0 0 0 8.022 24h-.022a8 8 0 0 0 -8 8v33.417c-.969-1.1-1.95-2.195-2.958-3.266-23.142-24.602-53.342-38.151-85.022-38.151-25.185 0-49.927 8.261-71.551 23.889a40.762 40.762 0 0 0 -8.346 8.046h-14.409a112.745 112.745 0 0 0 43.452-47.935h2.834a40 40 0 0 0 8-79.195v-.805a112.073 112.073 0 0 0 -56.792-97.418 56.007 56.007 0 0 0 -110.416 0 112.073 112.073 0 0 0 -56.792 97.418v.805a40 40 0 0 0 8 79.195h2.837a112.743 112.743 0 0 0 43.446 47.935h-62.283a40.045 40.045 0 0 0 -40 40v160.065a8 8 0 0 0 8 8h304.02c43.206 0 81.148-22.192 102.282-55.4l1.152 32.257a23.915 23.915 0 0 0 23.984 23.143h1.124a23.915 23.915 0 0 0 23.984-23.143l5.46-152.857h1.994a8 8 0 0 0 8-8v-48a8 8 0 0 0 -8-8h-.022a39.788 39.788 0 0 0 8.022-24v-48a40.045 40.045 0 0 0 -40-40zm0 16a24.042 24.042 0 0 1 23.23 17.963c-7.149 2.833-16.97 9.757-22.794 26.69-3.845 11.172-16.668 11.905-24.436 11.247v-39.9a34.92 34.92 0 0 0 -4.052-16zm24 112v32h-48v-32zm-368 31.935h32v24.065a8 8 0 0 0 8 8h48a8 8 0 0 0 8-8v-24.065h32v6.839q-.021.9 0 1.814v55.412h-128zm48 0h32v16.065h-32zm144-103.935a24.032 24.032 0 0 1 -20.6 23.755 111.624 111.624 0 0 0 4.6-31.755v-14.624a24.039 24.039 0 0 1 16 22.624zm-32-40h-16a24.027 24.027 0 0 1 -24-24v-53.927a95.94 95.94 0 0 1 40 77.927zm-96-128a39.871 39.871 0 0 1 35.67 21.825 112.127 112.127 0 0 0 -71.34 0 39.871 39.871 0 0 1 35.67-21.825zm0 32a95.423 95.423 0 0 1 40 8.741v63.259a24.027 24.027 0 0 1 -24 24h-112a96.108 96.108 0 0 1 96-96zm-128 136a24.039 24.039 0 0 1 16-22.624v14.624a111.623 111.623 0 0 0 4.6 31.755 24.033 24.033 0 0 1 -20.6-23.755zm32-8v-16h112a39.964 39.964 0 0 0 32-16.028 39.964 39.964 0 0 0 32 16.028h16v16a96.112 96.112 0 0 1 -92.634 95.935h-6.732a96.112 96.112 0 0 1 -92.634-95.935zm144 288h-96v-48h96zm16 0v-56a8 8 0 0 0 -8-8h-112a8 8 0 0 0 -8 8v56h-32v-176h-16v176h-32v-152.065a24.027 24.027 0 0 1 24-24h40v72.065a8 8 0 0 0 8 8h144a8 8 0 0 0 8-8v-31.868a39.74 39.74 0 0 0 24 7.868v48.015a40.605 40.605 0 0 0 -22.48 73.861c3.14 2.208 6.378 4.237 9.686 6.124zm56-126.63a23.994 23.994 0 0 1 0 45.26zm32.02 126.63a105.974 105.974 0 0 1 -61.3-19.213c-10.918-7.676-11.993-19.31-9.359-27.639 2.623-8.29 10.158-17.148 23.439-17.148h7.221a40 40 0 0 0 0-80h-8.006c-12.837 0-20.191-8.59-22.791-16.63-2.572-7.947-1.659-19.086 8.619-26.513 13.164-9.515 34.637-20.857 62.177-20.857 27.223 0 53.28 11.76 73.369 33.114 19.466 20.692 30.631 47.986 30.631 74.886 0 55.14-46.655 100-104 100zm136.536-7.714a7.972 7.972 0 0 1 -7.994 7.714h-1.124a7.972 7.972 0 0 1 -7.994-7.714l-2.381-66.66a112.274 112.274 0 0 0 2.957-25.626 119.306 119.306 0 0 0 -5.091-34.128l-.924-25.872h27.995zm-32.556-240.286v-.053c1.108.063 2.241.1 3.4.1 13.7 0 30.165-4.735 36.168-22.189 2.4-6.965 5.533-11.215 8.436-13.808v35.95a24 24 0 0 1 -48 0z"/><path d="m223.385 235.077a8 8 0 1 0 -14.77-6.154c-.079.191-8.23 19.077-32.615 19.077-23.955 0-32.248-18.238-32.636-19.126a8 8 0 0 0 -14.749 6.2c.492 1.184 12.453 28.926 47.385 28.926s46.893-27.742 47.385-28.923z"/><path d="m328.02 288a24 24 0 1 0 24 24 24.027 24.027 0 0 0 -24-24zm0 32a8 8 0 1 1 8-8 8.009 8.009 0 0 1 -8 8z"/><path d="m384.02 368a24 24 0 1 0 -24-24 24.027 24.027 0 0 0 24 24zm0-32a8 8 0 1 1 -8 8 8.009 8.009 0 0 1 8-8z"/><path d="m384.02 384a24 24 0 1 0 24 24 24.027 24.027 0 0 0 -24-24zm0 32a8 8 0 1 1 8-8 8.009 8.009 0 0 1 -8 8z"/><path d="m328.02 416a24 24 0 1 0 24 24 24.027 24.027 0 0 0 -24-24zm0 32a8 8 0 1 1 8-8 8.009 8.009 0 0 1 -8 8z"/></svg>